<svg width="16" height="16" viewBox="0 0 16 16" fill="none" xmlns="http://www.w3.org/2000/svg">
    <path fill-rule="evenodd" clip-rule="evenodd" d="M13.9 12.2a2.503 2.503 0 0 0 .05-1.2h1.45a.6.6 0 1 1 0 1.2h-1.5zm-4.8 0H.6a.6.6 0 1 1 0-1.2h8.45a2.512 2.512 0 0 0 .05 1.2z" fill="#4353FF"/>
    <path fill-rule="evenodd" clip-rule="evenodd" d="M11.5 12.8a1.3 1.3 0 1 0 0-2.6 1.3 1.3 0 0 0 0 2.6zm0 1.2a2.5 2.5 0 1 0 0-5 2.5 2.5 0 0 0 0 5zM7.9 5.2A2.501 2.501 0 0 0 7.95 4h7.45a.6.6 0 1 1 0 1.2H7.9zm-4.8 0H.6A.6.6 0 0 1 .6 4h2.45a2.512 2.512 0 0 0 .05 1.2z" fill="#4353FF"/>
    <path fill-rule="evenodd" clip-rule="evenodd" d="M5.5 5.8a1.3 1.3 0 1 0 0-2.6 1.3 1.3 0 0 0 0 2.6zm0 1.2a2.5 2.5 0 1 0 0-5 2.5 2.5 0 0 0 0 5z" fill="#4353FF"/>
</svg>
.364.377-.364H14.46c.208 0 .377.163.377.364v5.555zm-1.79 2.994c0 .201-.17.364-.378.364H3.332a.371.371 0 0 1-.378-.364v-1.506h10.092v1.506z"/>
        <path d="M4.344 6.832H3.43a.44.44 0 0 0-.305.121.405.405 0 0 0-.126.294l.006 3.14c0 .228.193.413.432.413a.423.423 0 0 0 .43-.413v-.954l.476-.001c.757 0 1.374-.583 1.374-1.3 0-.717-.617-1.3-1.374-1.3zm0 1.773c-.112 0-.3 0-.478.002a109.768 109.768 0 0 1-.002-.948h.48c.277 0 .511.216.511.473 0 .256-.234.473-.511.473zM8.011 6.832h-.9a.44.44 0 0 0-.305.121.405.405 0 0 0-.126.293l.006 3.05c0 .109.046.214.128.291.08.077.19.12.303.12h.002c.027 0 .67-.002.926-.007.975-.016 1.682-.828 1.682-1.93 0-1.16-.69-1.938-1.716-1.938zm.02 3.042c-.112.002-.305.003-.484.004l-.004-2.22h.468c.792 0 .853.85.853 1.112 0 .542-.257 1.094-.834 1.104zM12.569 7.627A.423.423 0 0 0 13 7.213a.423.423 0 0 0-.431-.413H11.25a.423.423 0 0 0-.43.413v3.119c0 .228.192.413.43.413a.423.423 0 0 0 .432-.413V9.156h.782a.423.423 0 0 0 .431-.413.423.423 0 0 0-.43-.413h-.783v-.703h.887z"/>
    </g>
    <defs>
        <clipPath id="up48n92zda">
            <path fill="#fff" d="M0 0h16v16H0z"/>
        </clipPath>
    </defs>
</svg>
